<svg xmlns="http://www.w3.org/2000/svg" viewBox="0 0 32 32">
  <circle cx="16" cy="16" r="15" fill="#fcfcf7" stroke="#d4d4cd" stroke-width="1.2"/>
  <path d="M9 3.6 C 14 9.5, 14 22.5, 9 28.4" fill="none" stroke="#cf2e2e" stroke-width="1.7" stroke-linecap="round"/>
  <path d="M23 3.6 C 18 9.5, 18 22.5, 23 28.4" fill="none" stroke="#cf2e2e" stroke-width="1.7" stroke-linecap="round"/>
  <g stroke="#cf2e2e" stroke-width="1.1" stroke-linecap="round">
    <path d="M9.6 7.2 l2.3 1.2 M9.9 7.9 l2.3 -1.2"/>
    <path d="M11.3 11.2 l2.4 1.2 M11.6 11.9 l2.4 -1.2"/>
    <path d="M11.9 16 l2.5 1 M11.9 16.7 l2.5 -1"/>
    <path d="M11.3 20.8 l2.4 1.2 M11.6 21.5 l2.4 -1.2"/>
    <path d="M9.6 24.8 l2.3 1.2 M9.9 25.5 l2.3 -1.2"/>
  </g>
  <g stroke="#cf2e2e" stroke-width="1.1" stroke-linecap="round">
    <path d="M22.4 7.2 l-2.3 1.2 M22.1 7.9 l-2.3 -1.2"/>
    <path d="M20.7 11.2 l-2.4 1.2 M20.4 11.9 l-2.4 -1.2"/>
    <path d="M20.1 16 l-2.5 1 M20.1 16.7 l-2.5 -1"/>
    <path d="M20.7 20.8 l-2.4 1.2 M20.4 21.5 l-2.4 -1.2"/>
    <path d="M22.4 24.8 l-2.3 1.2 M22.1 25.5 l-2.3 -1.2"/>
  </g>
</svg>
